<svg version="1.1" xmlns="http://www.w3.org/2000/svg" viewBox="0 0 500 800" preserveAspectRatio="xMidYMid meet">
<style type="text/css">
	.st0{fill:#C49F56;}
	.st1{fill:#AA8646;}
</style>
<g transform="translate(-750, -600)">
	<g>
		<polyline class="st0" points="1173.9,1289.6 1318.5,922.7 1138.2,1124.5 1173.9,1289.6 			"/>
		<polyline class="st0" points="932.2,1340.9 962.3,1092.6 878.9,1126.8 932.2,1340.9 			"/>
		<polygon class="st0" points="681.5,922.7 826.1,1289.6 861.8,1124.5 			"/>
		<polyline class="st0" points="971.7,1067.4 992.5,1038.4 992.5,809.5 867.5,904.8 971.7,1067.4 			"/>
		<polygon class="st0" points="1077.1,1366 1163.3,1311.9 1129.5,1155.5 			"/>
		<polyline class="st0" points="1330.8,879.6 1284.9,739.9 1159.5,894 1330.8,879.6 			"/>
		<polyline class="st0" points="1123.1,1111.3 1133.4,931.2 1039.9,1077.3 1123.1,1111.3 			"/>
		<polygon class="st0" points="1135,694.3 1012.2,794.1 1135,887.8 			"/>
		<polygon class="st0" points="850.3,910 677.3,895.4 861.3,1101.2 			"/>
		<polygon class="st0" points="725.1,728.3 848.6,880.2 848.6,880.2 849.9,881.8 849.9,877.3 849.9,855.6 849.9,688.8 			"/>
	</g>
	<g>
		<polyline class="st1" points="870.5,1155.5 836.7,1311.9 922.9,1366 870.5,1155.5 			"/>
		<polyline class="st1" points="715.1,739.9 669.2,879.6 840.5,894 715.1,739.9 			"/>
		<polyline class="st1" points="1037.7,1092.6 1067.8,1340.9 1121.2,1126.8 1037.7,1092.6 			"/>
		<polyline class="st1" points="1007.5,809.5 1007.5,1038.4 1028.3,1067.4 1132.5,904.8 1007.5,809.5 			"/>
		<polyline class="st1" points="1322.8,895.4 1149.7,910 1138.8,1101.2 1322.8,895.4 			"/>
		<polyline class="st1" points="866.6,931.2 876.9,1111.3 960.1,1077.3 866.6,931.2 			"/>
		<polyline class="st1" points="865,694.3 865,887.8 987.8,794.1 865,694.3 			"/>
		<polyline class="st1" points="1150.1,688.8 1150.1,855.6 1150.1,877.3 1150.1,881.8 1151.4,880.2 1151.4,880.2 1274.9,728.3 1150.1,688.8 			"/>
	</g>
</g>
</svg>
